<svg width="27" height="20" viewBox="0 0 27 20" fill="none" xmlns="http://www.w3.org/2000/svg">
<path d="M2.07897 11.2499H20.6569L12.5405 17.3499C11.8919 17.8374 11.8919 18.6374 12.5405 19.1249C13.1892 19.6124 14.237 19.6124 14.8856 19.1249L25.8461 10.8874C26.4948 10.3999 26.4948 9.61238 25.8461 9.12488L14.9023 0.874884C14.5915 0.640819 14.1697 0.509277 13.7297 0.509277C13.2898 0.509277 12.8679 0.640819 12.5572 0.874884C11.9085 1.36238 11.9085 2.14988 12.5572 2.63738L20.6569 8.74988H2.07897C1.16421 8.74988 0.415771 9.31238 0.415771 9.99988C0.415771 10.6874 1.16421 11.2499 2.07897 11.2499Z" fill="#4DA0FD"/>
</svg>
